# xmcd
#
# Track frame offsets: 
#        150
#        17046
#        34305
#        50922
#        66514
#        86287
#        104455
#        120829
#        142734
#        165262
#
# Disc length: 2485 seconds
#
# Revision: 0
# Processed by: cddbd v1.5.2PL0 Copyright (c) Steve Scherf et al.
# Submitted via: ExactAudioCopy v1.0b4
#
DISCID=7b09b30a
DTITLE=Jason Burnstick - Where The Blood Mixes
DYEAR=1900
DGENRE=Ambient
TTITLE0=Lullaby Intro
TTITLE1=Bar Blues
TTITLE2=Fishing
TTITLE3=Where The Rivers Meet
TTITLE4=Empty Hole
TTITLE5=Jay Jam
TTITLE6=She Comes Home
TTITLE7=Forgiveness
TTITLE8=I Walk This Bridge
TTITLE9=Lullaby Song
EXTD=
EXTT0=
EXTT1=
EXTT2=
EXTT3=
EXTT4=
EXTT5=
EXTT6=
EXTT7=
EXTT8=
EXTT9=
PLAYORDER=
